# xmcd
#
# Track frame offsets:
#	150
#	7851
#	18712
#	28087
#	40481
#	51713
#	63089
#	74843
#	83944
#	95641
#	106682
#	116280
#	127602
#	138509
#	149924
#	160271
#	174004
#	184729
#	196228
#	209469
#	224551
#	236922
#	252108
#	265148
#	275595
#	289958
#	300593
#	314049
#	329601
#	342434
#
# Disc length: 4753 seconds
#
# Revision: 1
# Processed by: cddbd v1.5.2PL0 Copyright (c) Steve Scherf et al.
# Submitted via: audiograbber 1.83.01
#
DISCID=d6128f1e
DTITLE=Various Artist - The Best Of Lash Records
DYEAR=1900
DGENRE=R&B - Soul
TTITLE0=Lee Johnson and The Dials - Get Goin'
TTITLE1=Lee Johnson and The Dials - You Love Billy
TTITLE2=Lee Johnson and The Dee Jays - Tell Me
TTITLE3=Lee Johnson and The Dee Jays - My Love
TTITLE4=Lee Johnson - You Love Billy (Part 2)
TTITLE5=Sonny Fulton and The Will-Ettes - Here She Comes Now
TTITLE6=Sonny Fulton and The Dee Jays - A Lovely Relationship
TTITLE7=Fannie and The Varcells - The Guy
TTITLE8=Fannie and The Varcells - Inside Of Me
TTITLE9=Tommy White and The Hearts - I'm Not The Only One
TTITLE10=Tommy White - Every Day, Every Night
TTITLE11=The Swans - Don't Start That Again
TTITLE12=Honey and The Bees - Inside O' Me
TTITLE13=The Inspirations - Can't Stop Thinking About Her
TTITLE14=The Inspirations - I'm Cuttin' In
TTITLE15=The Inspirations - Treat Myself To A New Love
TTITLE16=The Inspirations - What Did She Say
TTITLE17=The Inspirations - True Love Never Dies
TTITLE18=Ann Byers - I'm Happy Without You
TTITLE19=Ann Byers - Your Love Is A Wonderful Thing
TTITLE20=Ann Byers - I'm Not Gonna Cry Baby
TTITLE21=Timmy Carr and The Cooperettes - Got No Time
TTITLE22=Timmy Carr and The Cooperettes - Got No Time (Instrumental)
TTITLE23=Timmy Carr and The Cooperettes - I Want My Lovin' From You
TTITLE24=Benny Sigler and The Cooperettes - I Can Give You Love
TTITLE25=Benny Sigler and The Cooperettes - Is Lincoln Still On The Penny
TTITLE26=Alfreda Brockington - Give Me What You're Givin' Her
TTITLE27=Alfreda Brockington - Waitin' For Your Touch
TTITLE28=Patty Hamilton - He Brought Sunshine Into My Life
TTITLE29=Patty Hamilton - Gotta Get You Into My World
EXTD=
EXTT0=
EXTT1=
EXTT2=
EXTT3=
EXTT4=
EXTT5=
EXTT6=
EXTT7=
EXTT8=
EXTT9=
EXTT10=
EXTT11=
EXTT12=
EXTT13=
EXTT14=
EXTT15=
EXTT16=
EXTT17=
EXTT18=
EXTT19=
EXTT20=
EXTT21=
EXTT22=
EXTT23=
EXTT24=
EXTT25=
EXTT26=
EXTT27=
EXTT28=
EXTT29=
PLAYORDER=
